<svg xmlns="http://www.w3.org/2000/svg" xmlns:xlink="http://www.w3.org/1999/xlink" version="1.1" width="256" height="256" viewBox="0 0 256 256" xml:space="preserve">
<g style="stroke: none; stroke-width: 0; stroke-dasharray: none; stroke-linecap: butt; stroke-linejoin: miter; stroke-miterlimit: 10; fill: none; fill-rule: nonzero; opacity: 1;" transform="translate(1.4065934065934016 1.4065934065934016) scale(2.81 2.81)">
	<path d="M 9.895 37.4 c -1.104 0 -2 -0.896 -2 -2 V 11.794 c 0 -1.104 0.896 -2 2 -2 s 2 0.896 2 2 V 35.4 C 11.895 36.505 10.999 37.4 9.895 37.4 z" style="stroke: none; stroke-width: 1; stroke-dasharray: none; stroke-linecap: butt; stroke-linejoin: miter; stroke-miterlimit: 10; fill: rgb(0,0,0); fill-rule: nonzero; opacity: 1;" transform=" matrix(1 0 0 1 0 0) " stroke-linecap="round"/>
	<path d="M 9.895 37.4 c -1.104 0 -2 -0.896 -2 -2 V 11.794 c 0 -1.104 0.896 -2 2 -2 s 2 0.896 2 2 V 35.4 C 11.895 36.505 10.999 37.4 9.895 37.4 z" style="stroke: none; stroke-width: 1; stroke-dasharray: none; stroke-linecap: butt; stroke-linejoin: miter; stroke-miterlimit: 10; fill: rgb(0,0,0); fill-rule: nonzero; opacity: 1;" transform=" matrix(1 0 0 1 0 0) " stroke-linecap="round"/>
	<path d="M 2 33.501 c -1.104 0 -2 -0.896 -2 -2 V 15.693 c 0 -1.104 0.896 -2 2 -2 s 2 0.896 2 2 v 15.808 C 4 32.606 3.104 33.501 2 33.501 z" style="stroke: none; stroke-width: 1; stroke-dasharray: none; stroke-linecap: butt; stroke-linejoin: miter; stroke-miterlimit: 10; fill: rgb(0,0,0); fill-rule: nonzero; opacity: 1;" transform=" matrix(1 0 0 1 0 0) " stroke-linecap="round"/>
	<path d="M 2 33.501 c -1.104 0 -2 -0.896 -2 -2 V 15.693 c 0 -1.104 0.896 -2 2 -2 s 2 0.896 2 2 v 15.808 C 4 32.606 3.104 33.501 2 33.501 z" style="stroke: none; stroke-width: 1; stroke-dasharray: none; stroke-linecap: butt; stroke-linejoin: miter; stroke-miterlimit: 10; fill: rgb(0,0,0); fill-rule: nonzero; opacity: 1;" transform=" matrix(1 0 0 1 0 0) " stroke-linecap="round"/>
	<path d="M 80.105 37.4 c -1.104 0 -2 -0.896 -2 -2 V 11.794 c 0 -1.104 0.896 -2 2 -2 s 2 0.896 2 2 V 35.4 C 82.105 36.505 81.21 37.4 80.105 37.4 z" style="stroke: none; stroke-width: 1; stroke-dasharray: none; stroke-linecap: butt; stroke-linejoin: miter; stroke-miterlimit: 10; fill: rgb(0,0,0); fill-rule: nonzero; opacity: 1;" transform=" matrix(1 0 0 1 0 0) " stroke-linecap="round"/>
	<path d="M 80.105 37.4 c -1.104 0 -2 -0.896 -2 -2 V 11.794 c 0 -1.104 0.896 -2 2 -2 s 2 0.896 2 2 V 35.4 C 82.105 36.505 81.21 37.4 80.105 37.4 z" style="stroke: none; stroke-width: 1; stroke-dasharray: none; stroke-linecap: butt; stroke-linejoin: miter; stroke-miterlimit: 10; fill: rgb(0,0,0); fill-rule: nonzero; opacity: 1;" transform=" matrix(1 0 0 1 0 0) " stroke-linecap="round"/>
	<path d="M 88 33.501 c -1.104 0 -2 -0.896 -2 -2 V 15.693 c 0 -1.104 0.896 -2 2 -2 s 2 0.896 2 2 v 15.808 C 90 32.606 89.104 33.501 88 33.501 z" style="stroke: none; stroke-width: 1; stroke-dasharray: none; stroke-linecap: butt; stroke-linejoin: miter; stroke-miterlimit: 10; fill: rgb(0,0,0); fill-rule: nonzero; opacity: 1;" transform=" matrix(1 0 0 1 0 0) " stroke-linecap="round"/>
	<path d="M 88 33.501 c -1.104 0 -2 -0.896 -2 -2 V 15.693 c 0 -1.104 0.896 -2 2 -2 s 2 0.896 2 2 v 15.808 C 90 32.606 89.104 33.501 88 33.501 z" style="stroke: none; stroke-width: 1; stroke-dasharray: none; stroke-linecap: butt; stroke-linejoin: miter; stroke-miterlimit: 10; fill: rgb(0,0,0); fill-rule: nonzero; opacity: 1;" transform=" matrix(1 0 0 1 0 0) " stroke-linecap="round"/>
	<path d="M 80.105 25.597 H 9.895 c -1.104 0 -2 -0.896 -2 -2 s 0.896 -2 2 -2 h 70.211 c 1.104 0 2 0.896 2 2 S 81.21 25.597 80.105 25.597 z" style="stroke: none; stroke-width: 1; stroke-dasharray: none; stroke-linecap: butt; stroke-linejoin: miter; stroke-miterlimit: 10; fill: rgb(0,0,0); fill-rule: nonzero; opacity: 1;" transform=" matrix(1 0 0 1 0 0) " stroke-linecap="round"/>
	<path d="M 66.154 80.206 H 23.846 c -1.104 0 -2 -0.896 -2 -2 V 17.698 c 0 -1.104 0.896 -2 2 -2 s 2 0.896 2 2 v 58.508 h 38.309 V 17.698 c 0 -1.104 0.896 -2 2 -2 s 2 0.896 2 2 v 60.508 C 68.154 79.311 67.259 80.206 66.154 80.206 z" style="stroke: none; stroke-width: 1; stroke-dasharray: none; stroke-linecap: butt; stroke-linejoin: miter; stroke-miterlimit: 10; fill: rgb(0,0,0); fill-rule: nonzero; opacity: 1;" transform=" matrix(1 0 0 1 0 0) " stroke-linecap="round"/>
	<path d="M 77.413 80.206 H 12.586 c -1.104 0 -2 -0.896 -2 -2 s 0.896 -2 2 -2 h 64.827 c 1.104 0 2 0.896 2 2 S 78.518 80.206 77.413 80.206 z" style="stroke: none; stroke-width: 1; stroke-dasharray: none; stroke-linecap: butt; stroke-linejoin: miter; stroke-miterlimit: 10; fill: rgb(0,0,0); fill-rule: nonzero; opacity: 1;" transform=" matrix(1 0 0 1 0 0) " stroke-linecap="round"/>
	<path d="M 54.533 67.957 H 35.467 c -1.104 0 -2 -0.896 -2 -2 v -4.281 c 0 -3.531 2.873 -6.404 6.405 -6.404 h 10.256 c 3.532 0 6.405 2.873 6.405 6.404 v 4.281 C 56.533 67.062 55.638 67.957 54.533 67.957 z M 37.467 63.957 h 15.066 v -2.281 c 0 -1.326 -1.079 -2.404 -2.405 -2.404 H 39.872 c -1.326 0 -2.405 1.078 -2.405 2.404 V 63.957 z" style="stroke: none; stroke-width: 1; stroke-dasharray: none; stroke-linecap: butt; stroke-linejoin: miter; stroke-miterlimit: 10; fill: rgb(0,0,0); fill-rule: nonzero; opacity: 1;" transform=" matrix(1 0 0 1 0 0) " stroke-linecap="round"/>
	<path d="M 45 80.206 c -1.104 0 -2 -0.896 -2 -2 V 65.957 c 0 -1.104 0.896 -2 2 -2 s 2 0.896 2 2 v 12.249 C 47 79.311 46.104 80.206 45 80.206 z" style="stroke: none; stroke-width: 1; stroke-dasharray: none; stroke-linecap: butt; stroke-linejoin: miter; stroke-miterlimit: 10; fill: rgb(0,0,0); fill-rule: nonzero; opacity: 1;" transform=" matrix(1 0 0 1 0 0) " stroke-linecap="round"/>
</g>
</svg>