<svg xmlns="http://www.w3.org/2000/svg" xmlns:xlink="http://www.w3.org/1999/xlink" version="1.1" width="256" height="256" viewBox="0 0 256 256" xml:space="preserve">
<g style="stroke: none; stroke-width: 0; stroke-dasharray: none; stroke-linecap: butt; stroke-linejoin: miter; stroke-miterlimit: 10; fill: none; fill-rule: nonzero; opacity: 1;" transform="translate(1.4065934065934016 1.4065934065934016) scale(2.81 2.81)">
	<path d="M 67.286 90 h -9.489 c -7.604 0 -13.789 -6.186 -13.789 -13.789 v -5.358 c 0 -1.104 0.896 -2 2 -2 s 2 0.896 2 2 v 5.358 c 0 5.397 4.392 9.789 9.789 9.789 h 9.489 c 7.379 0 13.383 -6.004 13.383 -13.383 V 48.024 c 0 -2.46 -2.001 -4.461 -4.461 -4.461 H 56.216 c -2.856 0 -5.465 1.451 -6.977 3.881 c -0.584 0.938 -1.815 1.224 -2.755 0.642 c -0.938 -0.584 -1.225 -1.816 -0.642 -2.755 c 2.247 -3.611 6.125 -5.768 10.373 -5.768 h 19.992 c 4.665 0 8.461 3.795 8.461 8.461 v 24.593 C 84.669 82.202 76.871 90 67.286 90 z" style="stroke: none; stroke-width: 1; stroke-dasharray: none; stroke-linecap: butt; stroke-linejoin: miter; stroke-miterlimit: 10; fill: rgb(0,0,0); fill-rule: nonzero; opacity: 1;" transform=" matrix(1 0 0 1 0 0) " stroke-linecap="round"/>
	<path d="M 46.008 72.853 h -1.723 c -3.205 0 -6.045 -1.675 -7.596 -4.479 s -1.46 -6.1 0.244 -8.815 l 8.922 -14.228 c 0.587 -0.935 1.823 -1.218 2.757 -0.632 c 0.936 0.587 1.219 1.821 0.632 2.757 l -8.922 14.229 c -0.919 1.465 -0.968 3.241 -0.131 4.754 c 0.836 1.512 2.367 2.415 4.096 2.415 h 1.723 c 1.459 0 4.972 -0.379 6.079 -3.885 c 0.333 -1.054 1.462 -1.637 2.51 -1.305 c 1.053 0.333 1.638 1.456 1.305 2.51 C 54.58 70.355 50.882 72.853 46.008 72.853 z" style="stroke: none; stroke-width: 1; stroke-dasharray: none; stroke-linecap: butt; stroke-linejoin: miter; stroke-miterlimit: 10; fill: rgb(0,0,0); fill-rule: nonzero; opacity: 1;" transform=" matrix(1 0 0 1 0 0) " stroke-linecap="round"/>
	<path d="M 76.4 43.563 H 55.968 c -1.104 0 -2 -0.896 -2 -2 V 29.981 c 0 -1.104 0.896 -2 2 -2 H 76.4 c 1.104 0 2 0.896 2 2 v 11.582 C 78.4 42.668 77.505 43.563 76.4 43.563 z M 57.968 39.563 H 74.4 v -7.582 H 57.968 V 39.563 z" style="stroke: none; stroke-width: 1; stroke-dasharray: none; stroke-linecap: butt; stroke-linejoin: miter; stroke-miterlimit: 10; fill: rgb(0,0,0); fill-rule: nonzero; opacity: 1;" transform=" matrix(1 0 0 1 0 0) " stroke-linecap="round"/>
	<path d="M 30.658 86.445 c -1.388 0 -2.799 -0.211 -4.19 -0.655 l -9.039 -2.888 C 8.298 79.984 3.243 70.184 6.159 61.054 l 7.483 -23.426 c 1.42 -4.445 6.193 -6.904 10.635 -5.486 l 19.044 6.084 c 3.02 0.965 5.514 3.031 7.022 5.819 c 0.525 0.972 0.164 2.185 -0.808 2.71 c -0.971 0.526 -2.186 0.164 -2.71 -0.807 c -1.014 -1.875 -2.691 -3.264 -4.721 -3.912 l -19.044 -6.084 c -1.135 -0.363 -2.343 -0.262 -3.403 0.285 c -1.059 0.546 -1.842 1.472 -2.205 2.607 L 9.97 62.271 c -2.246 7.029 1.646 14.575 8.676 16.821 l 9.039 2.888 c 5.143 1.646 10.662 -1.205 12.303 -6.346 l 1.975 -5.475 c 0.375 -1.04 1.521 -1.578 2.561 -1.202 c 1.039 0.375 1.577 1.521 1.202 2.56 l -1.951 5.404 C 41.924 82.715 36.495 86.445 30.658 86.445 z" style="stroke: none; stroke-width: 1; stroke-dasharray: none; stroke-linecap: butt; stroke-linejoin: miter; stroke-miterlimit: 10; fill: rgb(0,0,0); fill-rule: nonzero; opacity: 1;" transform=" matrix(1 0 0 1 0 0) " stroke-linecap="round"/>
	<path d="M 42.95 42.207 c -0.205 0 -0.41 -0.031 -0.608 -0.095 l -19.464 -6.218 c -0.505 -0.162 -0.926 -0.517 -1.169 -0.988 c -0.243 -0.472 -0.289 -1.021 -0.128 -1.525 l 3.524 -11.032 c 0.336 -1.052 1.465 -1.631 2.514 -1.297 l 19.463 6.218 c 1.053 0.336 1.633 1.461 1.297 2.514 l -3.524 11.032 c -0.162 0.505 -0.517 0.926 -0.988 1.169 C 43.581 42.132 43.266 42.207 42.95 42.207 z M 26 32.692 l 15.654 5 l 2.307 -7.222 l -15.653 -5 L 26 32.692 z" style="stroke: none; stroke-width: 1; stroke-dasharray: none; stroke-linecap: butt; stroke-linejoin: miter; stroke-miterlimit: 10; fill: rgb(0,0,0); fill-rule: nonzero; opacity: 1;" transform=" matrix(1 0 0 1 0 0) " stroke-linecap="round"/>
	<path d="M 67.027 31.982 c -0.727 0 -1.426 -0.396 -1.78 -1.086 L 52.409 5.918 l -14.312 21.17 c -0.618 0.915 -1.861 1.156 -2.777 0.537 c -0.915 -0.619 -1.155 -1.862 -0.537 -2.777 L 50.986 0.88 c 0.396 -0.585 1.064 -0.918 1.776 -0.876 c 0.706 0.042 1.337 0.454 1.659 1.083 l 14.382 27.981 c 0.506 0.982 0.118 2.188 -0.864 2.693 C 67.647 31.911 67.335 31.982 67.027 31.982 z" style="stroke: none; stroke-width: 1; stroke-dasharray: none; stroke-linecap: butt; stroke-linejoin: miter; stroke-miterlimit: 10; fill: rgb(0,0,0); fill-rule: nonzero; opacity: 1;" transform=" matrix(1 0 0 1 0 0) " stroke-linecap="round"/>
</g>
</svg>