<svg xmlns="http://www.w3.org/2000/svg" xmlns:xlink="http://www.w3.org/1999/xlink" version="1.1" width="256" height="256" viewBox="0 0 256 256" xml:space="preserve">
<g style="stroke: none; stroke-width: 0; stroke-dasharray: none; stroke-linecap: butt; stroke-linejoin: miter; stroke-miterlimit: 10; fill: none; fill-rule: nonzero; opacity: 1;" transform="translate(1.4065934065934016 1.4065934065934016) scale(2.81 2.81)">
	<path d="M 18.271 66.372 c -1.104 0 -2 -0.896 -2 -2 V 29.193 c 0 -1.104 0.896 -2 2 -2 s 2 0.896 2 2 v 35.179 C 20.271 65.477 19.375 66.372 18.271 66.372 z" style="stroke: none; stroke-width: 1; stroke-dasharray: none; stroke-linecap: butt; stroke-linejoin: miter; stroke-miterlimit: 10; fill: rgb(0,0,0); fill-rule: nonzero; opacity: 1;" transform=" matrix(1 0 0 1 0 0) " stroke-linecap="round"/>
	<path d="M 18.271 66.372 c -1.104 0 -2 -0.896 -2 -2 V 29.193 c 0 -1.104 0.896 -2 2 -2 s 2 0.896 2 2 v 35.179 C 20.271 65.477 19.375 66.372 18.271 66.372 z" style="stroke: none; stroke-width: 1; stroke-dasharray: none; stroke-linecap: butt; stroke-linejoin: miter; stroke-miterlimit: 10; fill: rgb(0,0,0); fill-rule: nonzero; opacity: 1;" transform=" matrix(1 0 0 1 0 0) " stroke-linecap="round"/>
	<path d="M 10.135 60.562 c -1.104 0 -2 -0.896 -2 -2 V 35.004 c 0 -1.104 0.896 -2 2 -2 s 2 0.896 2 2 v 23.558 C 12.135 59.666 11.24 60.562 10.135 60.562 z" style="stroke: none; stroke-width: 1; stroke-dasharray: none; stroke-linecap: butt; stroke-linejoin: miter; stroke-miterlimit: 10; fill: rgb(0,0,0); fill-rule: nonzero; opacity: 1;" transform=" matrix(1 0 0 1 0 0) " stroke-linecap="round"/>
	<path d="M 10.135 60.562 c -1.104 0 -2 -0.896 -2 -2 V 35.004 c 0 -1.104 0.896 -2 2 -2 s 2 0.896 2 2 v 23.558 C 12.135 59.666 11.24 60.562 10.135 60.562 z" style="stroke: none; stroke-width: 1; stroke-dasharray: none; stroke-linecap: butt; stroke-linejoin: miter; stroke-miterlimit: 10; fill: rgb(0,0,0); fill-rule: nonzero; opacity: 1;" transform=" matrix(1 0 0 1 0 0) " stroke-linecap="round"/>
	<path d="M 2 54.75 c -1.104 0 -2 -0.896 -2 -2 V 40.814 c 0 -1.104 0.896 -2 2 -2 s 2 0.896 2 2 V 52.75 C 4 53.854 3.104 54.75 2 54.75 z" style="stroke: none; stroke-width: 1; stroke-dasharray: none; stroke-linecap: butt; stroke-linejoin: miter; stroke-miterlimit: 10; fill: rgb(0,0,0); fill-rule: nonzero; opacity: 1;" transform=" matrix(1 0 0 1 0 0) " stroke-linecap="round"/>
	<path d="M 2 54.75 c -1.104 0 -2 -0.896 -2 -2 V 40.814 c 0 -1.104 0.896 -2 2 -2 s 2 0.896 2 2 V 52.75 C 4 53.854 3.104 54.75 2 54.75 z" style="stroke: none; stroke-width: 1; stroke-dasharray: none; stroke-linecap: butt; stroke-linejoin: miter; stroke-miterlimit: 10; fill: rgb(0,0,0); fill-rule: nonzero; opacity: 1;" transform=" matrix(1 0 0 1 0 0) " stroke-linecap="round"/>
	<path d="M 71.729 66.372 c -1.104 0 -2 -0.896 -2 -2 V 29.193 c 0 -1.104 0.896 -2 2 -2 s 2 0.896 2 2 v 35.179 C 73.729 65.477 72.834 66.372 71.729 66.372 z" style="stroke: none; stroke-width: 1; stroke-dasharray: none; stroke-linecap: butt; stroke-linejoin: miter; stroke-miterlimit: 10; fill: rgb(0,0,0); fill-rule: nonzero; opacity: 1;" transform=" matrix(1 0 0 1 0 0) " stroke-linecap="round"/>
	<path d="M 71.729 66.372 c -1.104 0 -2 -0.896 -2 -2 V 29.193 c 0 -1.104 0.896 -2 2 -2 s 2 0.896 2 2 v 35.179 C 73.729 65.477 72.834 66.372 71.729 66.372 z" style="stroke: none; stroke-width: 1; stroke-dasharray: none; stroke-linecap: butt; stroke-linejoin: miter; stroke-miterlimit: 10; fill: rgb(0,0,0); fill-rule: nonzero; opacity: 1;" transform=" matrix(1 0 0 1 0 0) " stroke-linecap="round"/>
	<path d="M 79.865 60.562 c -1.104 0 -2 -0.896 -2 -2 V 35.004 c 0 -1.104 0.896 -2 2 -2 s 2 0.896 2 2 v 23.558 C 81.865 59.666 80.97 60.562 79.865 60.562 z" style="stroke: none; stroke-width: 1; stroke-dasharray: none; stroke-linecap: butt; stroke-linejoin: miter; stroke-miterlimit: 10; fill: rgb(0,0,0); fill-rule: nonzero; opacity: 1;" transform=" matrix(1 0 0 1 0 0) " stroke-linecap="round"/>
	<path d="M 79.865 60.562 c -1.104 0 -2 -0.896 -2 -2 V 35.004 c 0 -1.104 0.896 -2 2 -2 s 2 0.896 2 2 v 23.558 C 81.865 59.666 80.97 60.562 79.865 60.562 z" style="stroke: none; stroke-width: 1; stroke-dasharray: none; stroke-linecap: butt; stroke-linejoin: miter; stroke-miterlimit: 10; fill: rgb(0,0,0); fill-rule: nonzero; opacity: 1;" transform=" matrix(1 0 0 1 0 0) " stroke-linecap="round"/>
	<path d="M 88 54.75 c -1.104 0 -2 -0.896 -2 -2 V 40.814 c 0 -1.104 0.896 -2 2 -2 s 2 0.896 2 2 V 52.75 C 90 53.854 89.104 54.75 88 54.75 z" style="stroke: none; stroke-width: 1; stroke-dasharray: none; stroke-linecap: butt; stroke-linejoin: miter; stroke-miterlimit: 10; fill: rgb(0,0,0); fill-rule: nonzero; opacity: 1;" transform=" matrix(1 0 0 1 0 0) " stroke-linecap="round"/>
	<path d="M 88 54.75 c -1.104 0 -2 -0.896 -2 -2 V 40.814 c 0 -1.104 0.896 -2 2 -2 s 2 0.896 2 2 V 52.75 C 90 53.854 89.104 54.75 88 54.75 z" style="stroke: none; stroke-width: 1; stroke-dasharray: none; stroke-linecap: butt; stroke-linejoin: miter; stroke-miterlimit: 10; fill: rgb(0,0,0); fill-rule: nonzero; opacity: 1;" transform=" matrix(1 0 0 1 0 0) " stroke-linecap="round"/>
	<path d="M 71.729 48.782 H 18.271 c -1.104 0 -2 -0.896 -2 -2 s 0.896 -2 2 -2 h 53.459 c 1.104 0 2 0.896 2 2 S 72.834 48.782 71.729 48.782 z" style="stroke: none; stroke-width: 1; stroke-dasharray: none; stroke-linecap: butt; stroke-linejoin: miter; stroke-miterlimit: 10; fill: rgb(0,0,0); fill-rule: nonzero; opacity: 1;" transform=" matrix(1 0 0 1 0 0) " stroke-linecap="round"/>
</g>
</svg>