<svg xmlns="http://www.w3.org/2000/svg" xmlns:xlink="http://www.w3.org/1999/xlink" version="1.1" width="256" height="256" viewBox="0 0 256 256" xml:space="preserve">
<g style="stroke: none; stroke-width: 0; stroke-dasharray: none; stroke-linecap: butt; stroke-linejoin: miter; stroke-miterlimit: 10; fill: none; fill-rule: nonzero; opacity: 1;" transform="translate(1.4065934065934016 1.4065934065934016) scale(2.81 2.81)">
	<path d="M 45.013 34.48 c -1.006 0 -2.016 -0.088 -3.018 -0.266 c -9.359 -1.656 -15.626 -10.617 -13.97 -19.976 c 0.802 -4.534 3.322 -8.484 7.095 -11.122 s 8.347 -3.65 12.882 -2.848 c 9.358 1.655 15.626 10.617 13.97 19.976 c 0 0 0 0 0 0 C 60.936 26.1 57.028 30.944 51.518 33.2 C 49.444 34.049 47.237 34.48 45.013 34.48 z M 44.992 4.003 c -6.297 0 -11.894 4.521 -13.029 10.932 c -1.271 7.187 3.541 14.069 10.729 15.341 c 2.472 0.437 4.999 0.168 7.311 -0.778 c 4.232 -1.733 7.234 -5.453 8.03 -9.951 c 1.271 -7.187 -3.541 -14.069 -10.728 -15.341 C 46.528 4.069 45.755 4.003 44.992 4.003 z M 60.002 19.896 h 0.01 H 60.002 z" style="stroke: none; stroke-width: 1; stroke-dasharray: none; stroke-linecap: butt; stroke-linejoin: miter; stroke-miterlimit: 10; fill: rgb(0,0,0); fill-rule: nonzero; opacity: 1;" transform=" matrix(1 0 0 1 0 0) " stroke-linecap="round"/>
	<path d="M 25.332 42.952 c -0.116 0 -0.233 -0.01 -0.351 -0.031 c -1.087 -0.192 -1.813 -1.23 -1.621 -2.318 l 4.665 -26.365 c 0.192 -1.087 1.228 -1.81 2.318 -1.621 c 1.087 0.192 1.813 1.23 1.621 2.318 L 27.298 41.3 C 27.127 42.27 26.283 42.952 25.332 42.952 z" style="stroke: none; stroke-width: 1; stroke-dasharray: none; stroke-linecap: butt; stroke-linejoin: miter; stroke-miterlimit: 10; fill: rgb(0,0,0); fill-rule: nonzero; opacity: 1;" transform=" matrix(1 0 0 1 0 0) " stroke-linecap="round"/>
	<path d="M 20.604 90 c -0.391 0 -0.785 -0.034 -1.178 -0.104 l 0 0 l -5.347 -0.946 c -1.757 -0.312 -3.288 -1.287 -4.31 -2.749 c -1.022 -1.463 -1.414 -3.235 -1.103 -4.992 l 6.597 -37.287 c 0.311 -1.757 1.287 -3.288 2.749 -4.31 c 1.463 -1.022 3.238 -1.414 4.992 -1.103 l 5.347 0.946 c 1.757 0.311 3.288 1.287 4.31 2.749 c 1.022 1.462 1.415 3.234 1.103 4.992 l -6.597 37.286 c -0.311 1.757 -1.287 3.287 -2.749 4.309 C 23.283 89.586 21.961 90 20.604 90 z M 20.124 85.957 c 0.703 0.127 1.416 -0.032 2.002 -0.442 c 0.586 -0.41 0.978 -1.024 1.103 -1.729 l 6.597 -37.286 c 0.125 -0.705 -0.033 -1.416 -0.443 -2.002 c -0.41 -0.586 -1.024 -0.978 -1.728 -1.103 l -5.348 -0.946 c -0.707 -0.124 -1.417 0.033 -2.002 0.442 c -0.586 0.411 -0.978 1.024 -1.103 1.729 l -6.597 37.287 c -0.125 0.705 0.033 1.416 0.442 2.002 c 0.41 0.587 1.024 0.978 1.729 1.103 L 20.124 85.957 z" style="stroke: none; stroke-width: 1; stroke-dasharray: none; stroke-linecap: butt; stroke-linejoin: miter; stroke-miterlimit: 10; fill: rgb(0,0,0); fill-rule: nonzero; opacity: 1;" transform=" matrix(1 0 0 1 0 0) " stroke-linecap="round"/>
	<path d="M 64.668 42.952 c -0.952 0 -1.796 -0.682 -1.968 -1.652 l -4.665 -26.365 c -0.192 -1.088 0.533 -2.125 1.621 -2.318 c 1.096 -0.193 2.126 0.534 2.318 1.621 l 4.665 26.365 c 0.192 1.088 -0.533 2.125 -1.621 2.318 C 64.901 42.942 64.783 42.952 64.668 42.952 z" style="stroke: none; stroke-width: 1; stroke-dasharray: none; stroke-linecap: butt; stroke-linejoin: miter; stroke-miterlimit: 10; fill: rgb(0,0,0); fill-rule: nonzero; opacity: 1;" transform=" matrix(1 0 0 1 0 0) " stroke-linecap="round"/>
	<path d="M 69.396 90 c -1.357 0 -2.679 -0.414 -3.814 -1.208 c -1.462 -1.022 -2.437 -2.553 -2.749 -4.309 l -6.597 -37.286 c -0.311 -1.757 0.081 -3.53 1.104 -4.992 c 1.022 -1.462 2.553 -2.438 4.309 -2.749 l 5.347 -0.946 c 1.756 -0.313 3.53 0.08 4.992 1.103 c 1.462 1.022 2.437 2.553 2.749 4.31 l 6.597 37.287 c 0.311 1.757 -0.081 3.529 -1.103 4.991 c -1.022 1.463 -2.553 2.438 -4.309 2.75 l -5.348 0.946 l 0 0 C 70.18 89.966 69.786 90 69.396 90 z M 70.225 87.927 h 0.01 H 70.225 z M 68.165 42.407 c -0.157 0 -0.314 0.014 -0.473 0.042 l -5.347 0.946 c -0.705 0.125 -1.319 0.517 -1.729 1.103 c -0.41 0.587 -0.567 1.298 -0.442 2.002 l 6.597 37.286 c 0.124 0.705 0.516 1.319 1.103 1.729 c 0.586 0.41 1.296 0.569 2.002 0.442 l 5.348 -0.946 c 0.705 -0.124 1.318 -0.516 1.728 -1.103 c 0.41 -0.586 0.567 -1.297 0.442 -2.002 L 70.797 44.62 c -0.124 -0.705 -0.516 -1.319 -1.103 -1.729 C 69.239 42.573 68.709 42.407 68.165 42.407 z" style="stroke: none; stroke-width: 1; stroke-dasharray: none; stroke-linecap: butt; stroke-linejoin: miter; stroke-miterlimit: 10; fill: rgb(0,0,0); fill-rule: nonzero; opacity: 1;" transform=" matrix(1 0 0 1 0 0) " stroke-linecap="round"/>
	<path d="M 30.865 54.121 c -0.116 0 -0.233 -0.01 -0.351 -0.03 l -14.563 -2.575 c -1.088 -0.192 -1.813 -1.23 -1.621 -2.318 c 0.192 -1.087 1.231 -1.809 2.317 -1.621 l 14.563 2.575 c 1.088 0.192 1.813 1.23 1.621 2.318 C 32.66 53.44 31.816 54.121 30.865 54.121 z" style="stroke: none; stroke-width: 1; stroke-dasharray: none; stroke-linecap: butt; stroke-linejoin: miter; stroke-miterlimit: 10; fill: rgb(0,0,0); fill-rule: nonzero; opacity: 1;" transform=" matrix(1 0 0 1 0 0) " stroke-linecap="round"/>
	<path d="M 59.136 54.121 c -0.952 0 -1.796 -0.682 -1.968 -1.651 c -0.192 -1.088 0.534 -2.126 1.621 -2.318 l 14.562 -2.575 c 1.096 -0.192 2.126 0.534 2.318 1.621 c 0.192 1.088 -0.534 2.126 -1.621 2.318 l -14.562 2.575 C 59.369 54.111 59.251 54.121 59.136 54.121 z" style="stroke: none; stroke-width: 1; stroke-dasharray: none; stroke-linecap: butt; stroke-linejoin: miter; stroke-miterlimit: 10; fill: rgb(0,0,0); fill-rule: nonzero; opacity: 1;" transform=" matrix(1 0 0 1 0 0) " stroke-linecap="round"/>
</g>
</svg>