<svg xmlns="http://www.w3.org/2000/svg" xmlns:xlink="http://www.w3.org/1999/xlink" version="1.1" width="256" height="256" viewBox="0 0 256 256" xml:space="preserve">
<g style="stroke: none; stroke-width: 0; stroke-dasharray: none; stroke-linecap: butt; stroke-linejoin: miter; stroke-miterlimit: 10; fill: none; fill-rule: nonzero; opacity: 1;" transform="translate(1.4065934065934016 1.4065934065934016) scale(2.81 2.81)">
	<path d="M 81.034 90 H 8.966 c -1.104 0 -2 -0.896 -2 -2 s 0.896 -2 2 -2 h 72.068 c 1.104 0 2 0.896 2 2 S 82.139 90 81.034 90 z" style="stroke: none; stroke-width: 1; stroke-dasharray: none; stroke-linecap: butt; stroke-linejoin: miter; stroke-miterlimit: 10; fill: rgb(0,0,0); fill-rule: nonzero; opacity: 1;" transform=" matrix(1 0 0 1 0 0) " stroke-linecap="round"/>
	<path d="M 56.7 74.967 H 33.3 c -1.104 0 -2 -0.896 -2 -2 v -5.254 c 0 -4.084 3.322 -7.406 7.406 -7.406 h 12.588 c 4.084 0 7.406 3.322 7.406 7.406 v 5.254 C 58.7 74.071 57.805 74.967 56.7 74.967 z M 35.3 70.967 h 19.4 v -3.254 c 0 -1.878 -1.528 -3.406 -3.406 -3.406 H 38.706 c -1.878 0 -3.406 1.528 -3.406 3.406 V 70.967 z" style="stroke: none; stroke-width: 1; stroke-dasharray: none; stroke-linecap: butt; stroke-linejoin: miter; stroke-miterlimit: 10; fill: rgb(0,0,0); fill-rule: nonzero; opacity: 1;" transform=" matrix(1 0 0 1 0 0) " stroke-linecap="round"/>
	<path d="M 45 90 c -1.104 0 -2 -0.896 -2 -2 V 72.967 c 0 -1.104 0.896 -2 2 -2 s 2 0.896 2 2 V 88 C 47 89.104 46.104 90 45 90 z" style="stroke: none; stroke-width: 1; stroke-dasharray: none; stroke-linecap: butt; stroke-linejoin: miter; stroke-miterlimit: 10; fill: rgb(0,0,0); fill-rule: nonzero; opacity: 1;" transform=" matrix(1 0 0 1 0 0) " stroke-linecap="round"/>
	<path d="M 45 64.307 c -1.104 0 -2 -0.896 -2 -2 V 50.888 c 0 -1.104 0.896 -2 2 -2 s 2 0.896 2 2 v 11.419 C 47 63.411 46.104 64.307 45 64.307 z" style="stroke: none; stroke-width: 1; stroke-dasharray: none; stroke-linecap: butt; stroke-linejoin: miter; stroke-miterlimit: 10; fill: rgb(0,0,0); fill-rule: nonzero; opacity: 1;" transform=" matrix(1 0 0 1 0 0) " stroke-linecap="round"/>
	<path d="M 46.507 52.888 h -3.014 c -2.548 0 -5.008 -1.066 -6.75 -2.926 s -2.646 -4.384 -2.479 -6.926 l 1.507 -23.048 c 0.316 -4.848 4.371 -8.646 9.229 -8.646 s 8.912 3.798 9.229 8.646 l 1.507 23.048 c 0.166 2.542 -0.737 5.067 -2.479 6.926 S 49.055 52.888 46.507 52.888 z M 45 15.342 c -2.757 0 -5.058 2.155 -5.238 4.907 l -1.507 23.048 c -0.096 1.464 0.404 2.86 1.407 3.931 c 1.003 1.07 2.363 1.66 3.831 1.66 h 3.014 c 1.467 0 2.828 -0.59 3.831 -1.66 c 1.003 -1.071 1.502 -2.467 1.406 -3.931 l -1.507 -23.048 C 50.058 17.497 47.757 15.342 45 15.342 z" style="stroke: none; stroke-width: 1; stroke-dasharray: none; stroke-linecap: butt; stroke-linejoin: miter; stroke-miterlimit: 10; fill: rgb(0,0,0); fill-rule: nonzero; opacity: 1;" transform=" matrix(1 0 0 1 0 0) " stroke-linecap="round"/>
	<path d="M 45 15.342 c -1.104 0 -2 -0.896 -2 -2 V 2 c 0 -1.104 0.896 -2 2 -2 s 2 0.896 2 2 v 11.342 C 47 14.446 46.104 15.342 45 15.342 z" style="stroke: none; stroke-width: 1; stroke-dasharray: none; stroke-linecap: butt; stroke-linejoin: miter; stroke-miterlimit: 10; fill: rgb(0,0,0); fill-rule: nonzero; opacity: 1;" transform=" matrix(1 0 0 1 0 0) " stroke-linecap="round"/>
	<path d="M 74.963 18.669 c -1.104 0 -2 -0.896 -2 -2 C 72.963 9.684 67.279 4 60.294 4 H 29.706 C 22.72 4 17.037 9.684 17.037 16.669 c 0 1.104 -0.896 2 -2 2 s -2 -0.896 -2 -2 C 13.037 7.478 20.515 0 29.706 0 h 30.588 c 9.191 0 16.669 7.478 16.669 16.669 C 76.963 17.774 76.067 18.669 74.963 18.669 z" style="stroke: none; stroke-width: 1; stroke-dasharray: none; stroke-linecap: butt; stroke-linejoin: miter; stroke-miterlimit: 10; fill: rgb(0,0,0); fill-rule: nonzero; opacity: 1;" transform=" matrix(1 0 0 1 0 0) " stroke-linecap="round"/>
	<path d="M 15.037 43.132 c -4.45 0 -8.071 -3.621 -8.071 -8.071 V 23.084 c 0 -4.45 3.621 -8.071 8.071 -8.071 c 4.451 0 8.071 3.621 8.071 8.071 v 11.977 C 23.108 39.512 19.487 43.132 15.037 43.132 z M 15.037 19.014 c -2.245 0 -4.071 1.826 -4.071 4.071 v 11.977 c 0 2.245 1.826 4.071 4.071 4.071 c 2.245 0 4.071 -1.826 4.071 -4.071 V 23.084 C 19.108 20.84 17.282 19.014 15.037 19.014 z" style="stroke: none; stroke-width: 1; stroke-dasharray: none; stroke-linecap: butt; stroke-linejoin: miter; stroke-miterlimit: 10; fill: rgb(0,0,0); fill-rule: nonzero; opacity: 1;" transform=" matrix(1 0 0 1 0 0) " stroke-linecap="round"/>
	<path d="M 74.963 43.132 c -4.45 0 -8.07 -3.621 -8.07 -8.071 V 23.084 c 0 -4.45 3.62 -8.071 8.07 -8.071 s 8.071 3.621 8.071 8.071 v 11.977 C 83.034 39.512 79.413 43.132 74.963 43.132 z M 74.963 19.014 c -2.244 0 -4.07 1.826 -4.07 4.071 v 11.977 c 0 2.245 1.826 4.071 4.07 4.071 c 2.245 0 4.071 -1.826 4.071 -4.071 V 23.084 C 79.034 20.84 77.208 19.014 74.963 19.014 z" style="stroke: none; stroke-width: 1; stroke-dasharray: none; stroke-linecap: butt; stroke-linejoin: miter; stroke-miterlimit: 10; fill: rgb(0,0,0); fill-rule: nonzero; opacity: 1;" transform=" matrix(1 0 0 1 0 0) " stroke-linecap="round"/>
	<path d="M 15.037 49.246 c -1.104 0 -2 -0.896 -2 -2 v -6.114 c 0 -1.104 0.896 -2 2 -2 s 2 0.896 2 2 v 6.114 C 17.037 48.351 16.141 49.246 15.037 49.246 z" style="stroke: none; stroke-width: 1; stroke-dasharray: none; stroke-linecap: butt; stroke-linejoin: miter; stroke-miterlimit: 10; fill: rgb(0,0,0); fill-rule: nonzero; opacity: 1;" transform=" matrix(1 0 0 1 0 0) " stroke-linecap="round"/>
	<path d="M 74.963 49.246 c -1.104 0 -2 -0.896 -2 -2 v -6.114 c 0 -1.104 0.896 -2 2 -2 s 2 0.896 2 2 v 6.114 C 76.963 48.351 76.067 49.246 74.963 49.246 z" style="stroke: none; stroke-width: 1; stroke-dasharray: none; stroke-linecap: butt; stroke-linejoin: miter; stroke-miterlimit: 10; fill: rgb(0,0,0); fill-rule: nonzero; opacity: 1;" transform=" matrix(1 0 0 1 0 0) " stroke-linecap="round"/>
</g>
</svg>