<svg xmlns="http://www.w3.org/2000/svg" xmlns:xlink="http://www.w3.org/1999/xlink" version="1.1" width="256" height="256" viewBox="0 0 256 256" xml:space="preserve">
<g style="stroke: none; stroke-width: 0; stroke-dasharray: none; stroke-linecap: butt; stroke-linejoin: miter; stroke-miterlimit: 10; fill: none; fill-rule: nonzero; opacity: 1;" transform="translate(1.4065934065934016 1.4065934065934016) scale(2.81 2.81)">
	<path d="M 50.468 60.321 h -6.239 c -4.543 0 -8.24 -3.696 -8.24 -8.239 V 31.509 c 0 -4.543 3.696 -8.24 8.24 -8.24 h 6.239 c 1.104 0 2 0.896 2 2 v 33.052 C 52.468 59.426 51.572 60.321 50.468 60.321 z M 44.229 27.269 c -2.338 0 -4.24 1.902 -4.24 4.24 v 20.573 c 0 2.338 1.902 4.239 4.24 4.239 h 4.239 V 27.269 H 44.229 z" style="stroke: none; stroke-width: 1; stroke-dasharray: none; stroke-linecap: butt; stroke-linejoin: miter; stroke-miterlimit: 10; fill: rgb(0,0,0); fill-rule: nonzero; opacity: 1;" transform=" matrix(1 0 0 1 0 0) " stroke-linecap="round"/>
	<path d="M 45.747 19.516 c -5.381 0 -9.758 -4.377 -9.758 -9.758 c 0 -5.38 4.377 -9.758 9.758 -9.758 s 9.758 4.377 9.758 9.758 C 55.505 15.139 51.128 19.516 45.747 19.516 z M 45.747 4 c -3.175 0 -5.758 2.583 -5.758 5.758 c 0 3.175 2.583 5.758 5.758 5.758 c 3.175 0 5.758 -2.583 5.758 -5.758 C 51.505 6.583 48.922 4 45.747 4 z" style="stroke: none; stroke-width: 1; stroke-dasharray: none; stroke-linecap: butt; stroke-linejoin: miter; stroke-miterlimit: 10; fill: rgb(0,0,0); fill-rule: nonzero; opacity: 1;" transform=" matrix(1 0 0 1 0 0) " stroke-linecap="round"/>
	<path d="M 69.308 27.269 h -18.84 c -1.104 0 -2 -0.896 -2 -2 s 0.896 -2 2 -2 h 18.84 c 1.104 0 2 0.896 2 2 S 70.412 27.269 69.308 27.269 z" style="stroke: none; stroke-width: 1; stroke-dasharray: none; stroke-linecap: butt; stroke-linejoin: miter; stroke-miterlimit: 10; fill: rgb(0,0,0); fill-rule: nonzero; opacity: 1;" transform=" matrix(1 0 0 1 0 0) " stroke-linecap="round"/>
	<path d="M 64.923 90 c -1.104 0 -2 -0.896 -2 -2 V 60.321 H 50.468 c -1.104 0 -2 -0.896 -2 -2 s 0.896 -2 2 -2 h 14.455 c 1.104 0 2 0.896 2 2 V 88 C 66.923 89.104 66.027 90 64.923 90 z" style="stroke: none; stroke-width: 1; stroke-dasharray: none; stroke-linecap: butt; stroke-linejoin: miter; stroke-miterlimit: 10; fill: rgb(0,0,0); fill-rule: nonzero; opacity: 1;" transform=" matrix(1 0 0 1 0 0) " stroke-linecap="round"/>
	<path d="M 35.532 90 c -9.285 0 -16.839 -7.555 -16.839 -16.84 s 7.554 -16.839 16.839 -16.839 c 9.286 0 16.84 7.554 16.84 16.839 S 44.818 90 35.532 90 z M 35.532 60.321 c -7.08 0 -12.839 5.76 -12.839 12.839 c 0 7.08 5.76 12.84 12.839 12.84 c 7.08 0 12.84 -5.76 12.84 -12.84 C 48.372 66.081 42.612 60.321 35.532 60.321 z" style="stroke: none; stroke-width: 1; stroke-dasharray: none; stroke-linecap: butt; stroke-linejoin: miter; stroke-miterlimit: 10; fill: rgb(0,0,0); fill-rule: nonzero; opacity: 1;" transform=" matrix(1 0 0 1 0 0) " stroke-linecap="round"/>
	<path d="M 35.532 90 c -5.166 0 -7.869 -8.472 -7.869 -16.84 s 2.703 -16.839 7.869 -16.839 s 7.869 8.471 7.869 16.839 S 40.698 90 35.532 90 z M 35.532 60.321 c -1.123 0 -3.869 4.499 -3.869 12.839 c 0 8.341 2.746 12.84 3.869 12.84 s 3.869 -4.499 3.869 -12.84 C 39.401 64.82 36.655 60.321 35.532 60.321 z" style="stroke: none; stroke-width: 1; stroke-dasharray: none; stroke-linecap: butt; stroke-linejoin: miter; stroke-miterlimit: 10; fill: rgb(0,0,0); fill-rule: nonzero; opacity: 1;" transform=" matrix(1 0 0 1 0 0) " stroke-linecap="round"/>
</g>
</svg>