<svg xmlns="http://www.w3.org/2000/svg" xmlns:xlink="http://www.w3.org/1999/xlink" version="1.1" width="256" height="256" viewBox="0 0 256 256" xml:space="preserve">
<g style="stroke: none; stroke-width: 0; stroke-dasharray: none; stroke-linecap: butt; stroke-linejoin: miter; stroke-miterlimit: 10; fill: none; fill-rule: nonzero; opacity: 1;" transform="translate(1.4065934065934016 1.4065934065934016) scale(2.81 2.81)">
	<path d="M 7.378 54.677 c -1.104 0 -2 -0.896 -2 -2 V 15.514 c 0 -1.104 0.896 -2 2 -2 s 2 0.896 2 2 v 37.163 C 9.378 53.781 8.483 54.677 7.378 54.677 z" style="stroke: none; stroke-width: 1; stroke-dasharray: none; stroke-linecap: butt; stroke-linejoin: miter; stroke-miterlimit: 10; fill: rgb(0,0,0); fill-rule: nonzero; opacity: 1;" transform=" matrix(1 0 0 1 0 0) " stroke-linecap="round"/>
	<path d="M 9.354 89.026 h -3.95 C 2.424 89.026 0 86.603 0 83.623 V 56.08 c 0 -2.979 2.424 -5.403 5.404 -5.403 h 3.95 c 2.979 0 5.403 2.424 5.403 5.403 v 27.543 C 14.757 86.603 12.333 89.026 9.354 89.026 z M 5.404 54.677 C 4.63 54.677 4 55.307 4 56.08 v 27.543 c 0 0.773 0.63 1.403 1.404 1.403 h 3.95 c 0.774 0 1.403 -0.63 1.403 -1.403 V 56.08 c 0 -0.773 -0.629 -1.403 -1.403 -1.403 H 5.404 z" style="stroke: none; stroke-width: 1; stroke-dasharray: none; stroke-linecap: butt; stroke-linejoin: miter; stroke-miterlimit: 10; fill: rgb(0,0,0); fill-rule: nonzero; opacity: 1;" transform=" matrix(1 0 0 1 0 0) " stroke-linecap="round"/>
	<path d="M 32.459 57.618 c -1.104 0 -2 -0.896 -2 -2 V 15.514 c 0 -5.812 -4.729 -10.541 -10.541 -10.541 S 9.378 9.702 9.378 15.514 c 0 1.104 -0.896 2 -2 2 s -2 -0.896 -2 -2 c 0 -8.018 6.523 -14.541 14.541 -14.541 s 14.541 6.523 14.541 14.541 v 40.104 C 34.459 56.723 33.564 57.618 32.459 57.618 z" style="stroke: none; stroke-width: 1; stroke-dasharray: none; stroke-linecap: butt; stroke-linejoin: miter; stroke-miterlimit: 10; fill: rgb(0,0,0); fill-rule: nonzero; opacity: 1;" transform=" matrix(1 0 0 1 0 0) " stroke-linecap="round"/>
	<path d="M 45 70.158 c -8.018 0 -14.541 -6.522 -14.541 -14.54 c 0 -1.104 0.896 -2 2 -2 s 2 0.896 2 2 c 0 5.812 4.729 10.54 10.541 10.54 c 5.812 0 10.54 -4.729 10.54 -10.54 c 0 -1.104 0.896 -2 2 -2 s 2 0.896 2 2 C 59.54 63.636 53.018 70.158 45 70.158 z" style="stroke: none; stroke-width: 1; stroke-dasharray: none; stroke-linecap: butt; stroke-linejoin: miter; stroke-miterlimit: 10; fill: rgb(0,0,0); fill-rule: nonzero; opacity: 1;" transform=" matrix(1 0 0 1 0 0) " stroke-linecap="round"/>
	<path d="M 82.621 54.677 c -1.104 0 -2 -0.896 -2 -2 V 15.514 c 0 -1.104 0.896 -2 2 -2 s 2 0.896 2 2 v 37.163 C 84.621 53.781 83.726 54.677 82.621 54.677 z" style="stroke: none; stroke-width: 1; stroke-dasharray: none; stroke-linecap: butt; stroke-linejoin: miter; stroke-miterlimit: 10; fill: rgb(0,0,0); fill-rule: nonzero; opacity: 1;" transform=" matrix(1 0 0 1 0 0) " stroke-linecap="round"/>
	<path d="M 84.597 89.026 h -3.95 c -2.979 0 -5.403 -2.424 -5.403 -5.403 V 56.08 c 0 -2.979 2.424 -5.403 5.403 -5.403 h 3.95 c 2.979 0 5.403 2.424 5.403 5.403 v 27.543 C 90 86.603 87.576 89.026 84.597 89.026 z M 80.646 54.677 c -0.773 0 -1.403 0.63 -1.403 1.403 v 27.543 c 0 0.773 0.63 1.403 1.403 1.403 h 3.95 c 0.773 0 1.403 -0.63 1.403 -1.403 V 56.08 c 0 -0.773 -0.63 -1.403 -1.403 -1.403 H 80.646 z" style="stroke: none; stroke-width: 1; stroke-dasharray: none; stroke-linecap: butt; stroke-linejoin: miter; stroke-miterlimit: 10; fill: rgb(0,0,0); fill-rule: nonzero; opacity: 1;" transform=" matrix(1 0 0 1 0 0) " stroke-linecap="round"/>
	<path d="M 57.54 57.618 c -1.104 0 -2 -0.896 -2 -2 V 15.514 c 0 -8.018 6.523 -14.541 14.541 -14.541 s 14.54 6.523 14.54 14.541 c 0 1.104 -0.896 2 -2 2 s -2 -0.896 -2 -2 c 0 -5.812 -4.729 -10.541 -10.54 -10.541 c -5.813 0 -10.541 4.729 -10.541 10.541 v 40.104 C 59.54 56.723 58.645 57.618 57.54 57.618 z" style="stroke: none; stroke-width: 1; stroke-dasharray: none; stroke-linecap: butt; stroke-linejoin: miter; stroke-miterlimit: 10; fill: rgb(0,0,0); fill-rule: nonzero; opacity: 1;" transform=" matrix(1 0 0 1 0 0) " stroke-linecap="round"/>
	<path d="M 12.757 62.376 H 2 c -1.104 0 -2 -0.896 -2 -2 s 0.896 -2 2 -2 h 10.757 c 1.104 0 2 0.896 2 2 S 13.861 62.376 12.757 62.376 z" style="stroke: none; stroke-width: 1; stroke-dasharray: none; stroke-linecap: butt; stroke-linejoin: miter; stroke-miterlimit: 10; fill: rgb(0,0,0); fill-rule: nonzero; opacity: 1;" transform=" matrix(1 0 0 1 0 0) " stroke-linecap="round"/>
	<path d="M 88 62.376 H 77.243 c -1.104 0 -2 -0.896 -2 -2 s 0.896 -2 2 -2 H 88 c 1.104 0 2 0.896 2 2 S 89.104 62.376 88 62.376 z" style="stroke: none; stroke-width: 1; stroke-dasharray: none; stroke-linecap: butt; stroke-linejoin: miter; stroke-miterlimit: 10; fill: rgb(0,0,0); fill-rule: nonzero; opacity: 1;" transform=" matrix(1 0 0 1 0 0) " stroke-linecap="round"/>
</g>
</svg>