<svg xmlns="http://www.w3.org/2000/svg" xmlns:xlink="http://www.w3.org/1999/xlink" version="1.1" width="256" height="256" viewBox="0 0 256 256" xml:space="preserve">
<g style="stroke: none; stroke-width: 0; stroke-dasharray: none; stroke-linecap: butt; stroke-linejoin: miter; stroke-miterlimit: 10; fill: none; fill-rule: nonzero; opacity: 1;" transform="translate(1.4065934065934016 1.4065934065934016) scale(2.81 2.81)">
	<path d="M 38.118 58.929 c -0.071 0 -0.144 -0.004 -0.215 -0.012 c -0.666 -0.072 -1.252 -0.473 -1.56 -1.067 l -2.922 -5.635 c -2.219 -4.278 -1.688 -9.458 1.352 -13.197 l 17.011 -20.069 c 0.709 -0.836 1.96 -0.945 2.802 -0.247 l 9.068 7.514 c 0.039 0.031 0.076 0.064 0.113 0.099 c 0.29 0.273 0.481 0.617 0.57 0.982 c 0.03 0.125 0.049 0.255 0.055 0.388 c 0.002 0.033 0.002 0.066 0.002 0.1 v 10.811 H 88 c 1.104 0 2 0.896 2 2 s -0.896 2 -2 2 H 62.394 c -1.104 0 -2 -0.896 -2 -2 v -7.297 l -20.739 24.91 C 39.272 58.667 38.708 58.929 38.118 58.929 z M 53.556 23.044 L 37.849 41.572 c -2.008 2.471 -2.363 5.938 -0.878 8.801 l 1.536 2.962 l 21.067 -25.304 L 53.556 23.044 z" style="stroke: none; stroke-width: 1; stroke-dasharray: none; stroke-linecap: butt; stroke-linejoin: miter; stroke-miterlimit: 10; fill: rgb(0,0,0); fill-rule: nonzero; opacity: 1;" transform=" matrix(1 0 0 1 0 0) " stroke-linecap="round"/>
	<path d="M 67.968 22.938 c -2.125 0 -4.263 -0.701 -6.036 -2.143 c -1.986 -1.614 -3.226 -3.906 -3.488 -6.452 c -0.264 -2.547 0.48 -5.043 2.096 -7.03 c 1.614 -1.987 3.906 -3.226 6.452 -3.489 c 2.549 -0.263 5.044 0.481 7.03 2.096 c 4.101 3.333 4.726 9.381 1.393 13.482 v 0 C 73.522 21.73 70.756 22.938 67.968 22.938 z M 67.987 7.773 c -0.194 0 -0.389 0.01 -0.585 0.03 c -1.483 0.153 -2.818 0.875 -3.76 2.032 c -0.94 1.158 -1.374 2.612 -1.221 4.096 c 0.153 1.483 0.875 2.819 2.033 3.759 c 2.387 1.942 5.913 1.577 7.855 -0.811 l 0 0 c 1.941 -2.39 1.577 -5.914 -0.813 -7.855 C 70.493 8.208 69.265 7.773 67.987 7.773 z M 73.862 18.142 h 0.01 H 73.862 z" style="stroke: none; stroke-width: 1; stroke-dasharray: none; stroke-linecap: butt; stroke-linejoin: miter; stroke-miterlimit: 10; fill: rgb(0,0,0); fill-rule: nonzero; opacity: 1;" transform=" matrix(1 0 0 1 0 0) " stroke-linecap="round"/>
	<path d="M 28.263 86.227 c -0.424 0 -0.852 -0.135 -1.215 -0.412 c -0.877 -0.672 -1.043 -1.928 -0.371 -2.805 l 13.597 -17.745 l -3.923 -7.399 c -0.517 -0.976 -0.146 -2.187 0.83 -2.703 c 0.978 -0.521 2.186 -0.146 2.704 0.83 l 4.524 8.533 c 0.366 0.69 0.296 1.532 -0.18 2.153 L 29.852 85.443 C 29.458 85.957 28.864 86.227 28.263 86.227 z" style="stroke: none; stroke-width: 1; stroke-dasharray: none; stroke-linecap: butt; stroke-linejoin: miter; stroke-miterlimit: 10; fill: rgb(0,0,0); fill-rule: nonzero; opacity: 1;" transform=" matrix(1 0 0 1 0 0) " stroke-linecap="round"/>
	<path d="M 28.263 36.418 c -0.449 0 -0.901 -0.15 -1.274 -0.459 c -0.851 -0.704 -0.97 -1.965 -0.265 -2.816 l 17.15 -20.716 c 0.338 -0.409 0.825 -0.666 1.354 -0.716 c 0.529 -0.049 1.055 0.113 1.463 0.451 L 63.67 26.229 c 0.851 0.705 0.969 1.965 0.264 2.816 c -0.704 0.85 -1.964 0.969 -2.816 0.264 L 45.679 16.519 L 29.805 35.694 C 29.409 36.171 28.838 36.418 28.263 36.418 z" style="stroke: none; stroke-width: 1; stroke-dasharray: none; stroke-linecap: butt; stroke-linejoin: miter; stroke-miterlimit: 10; fill: rgb(0,0,0); fill-rule: nonzero; opacity: 1;" transform=" matrix(1 0 0 1 0 0) " stroke-linecap="round"/>
	<path d="M 1.999 86.227 c -0.43 0 -0.864 -0.138 -1.229 -0.424 c -0.871 -0.679 -1.026 -1.936 -0.346 -2.807 l 25.445 -32.602 c 0.68 -0.87 1.938 -1.027 2.807 -0.346 c 0.871 0.679 1.026 1.936 0.346 2.807 L 3.577 85.457 C 3.182 85.962 2.593 86.227 1.999 86.227 z" style="stroke: none; stroke-width: 1; stroke-dasharray: none; stroke-linecap: butt; stroke-linejoin: miter; stroke-miterlimit: 10; fill: rgb(0,0,0); fill-rule: nonzero; opacity: 1;" transform=" matrix(1 0 0 1 0 0) " stroke-linecap="round"/>
</g>
</svg>