<svg xmlns="http://www.w3.org/2000/svg" xmlns:xlink="http://www.w3.org/1999/xlink" version="1.1" width="256" height="256" viewBox="0 0 256 256" xml:space="preserve">
<g style="stroke: none; stroke-width: 0; stroke-dasharray: none; stroke-linecap: butt; stroke-linejoin: miter; stroke-miterlimit: 10; fill: none; fill-rule: nonzero; opacity: 1;" transform="translate(1.4065934065934016 1.4065934065934016) scale(2.81 2.81)">
	<path d="M 75.65 61.172 c -0.764 0 -1.492 -0.439 -1.825 -1.182 l -6.211 -13.824 L 35.39 50.964 c -0.664 0.097 -1.331 -0.142 -1.779 -0.639 c -0.449 -0.497 -0.619 -1.187 -0.453 -1.835 l 1.413 -5.527 c 1.093 -4.273 4.612 -7.487 8.967 -8.188 l 15.127 -2.435 c 3.901 -0.629 7.776 1.454 9.4 5.067 l 9.408 20.943 c 0.453 1.008 0.003 2.191 -1.005 2.644 C 76.203 61.115 75.924 61.171 75.65 61.172 z M 60.056 36.23 c -0.25 0 -0.503 0.02 -0.757 0.061 l -15.126 2.435 c -2.781 0.448 -5.029 2.5 -5.727 5.23 l -0.667 2.609 l 28.131 -4.188 l -1.494 -3.327 C 63.637 37.316 61.912 36.23 60.056 36.23 z" style="stroke: none; stroke-width: 1; stroke-dasharray: none; stroke-linecap: butt; stroke-linejoin: miter; stroke-miterlimit: 10; fill: rgb(0,0,0); fill-rule: nonzero; opacity: 1;" transform=" matrix(1 0 0 1 0 0) " stroke-linecap="round"/>
	<path d="M 81.178 46.461 c -4.249 0 -8.001 -3.089 -8.698 -7.415 c -0.771 -4.799 2.504 -9.331 7.303 -10.103 c 2.324 -0.374 4.656 0.179 6.564 1.559 c 1.908 1.379 3.165 3.419 3.539 5.744 c 0.374 2.324 -0.179 4.655 -1.559 6.563 c -1.379 1.908 -3.419 3.165 -5.744 3.539 l 0 0 C 82.112 46.424 81.642 46.461 81.178 46.461 z M 81.194 32.829 c -0.258 0 -0.517 0.021 -0.776 0.063 c -2.62 0.422 -4.41 2.897 -3.988 5.519 c 0.423 2.621 2.896 4.407 5.519 3.988 l 0 0 c 1.27 -0.205 2.384 -0.891 3.138 -1.933 c 0.753 -1.042 1.056 -2.315 0.851 -3.585 c -0.204 -1.27 -0.891 -2.384 -1.933 -3.138 C 83.174 33.143 82.198 32.829 81.194 32.829 z" style="stroke: none; stroke-width: 1; stroke-dasharray: none; stroke-linecap: butt; stroke-linejoin: miter; stroke-miterlimit: 10; fill: rgb(0,0,0); fill-rule: nonzero; opacity: 1;" transform=" matrix(1 0 0 1 0 0) " stroke-linecap="round"/>
	<path d="M 2 61.172 c -0.855 0 -1.646 -0.553 -1.911 -1.413 c -0.325 -1.056 0.268 -2.175 1.323 -2.499 l 33.095 -10.185 c 1.055 -0.328 2.175 0.267 2.5 1.323 c 0.325 1.056 -0.268 2.175 -1.323 2.499 L 2.589 61.082 C 2.393 61.142 2.195 61.172 2 61.172 z" style="stroke: none; stroke-width: 1; stroke-dasharray: none; stroke-linecap: butt; stroke-linejoin: miter; stroke-miterlimit: 10; fill: rgb(0,0,0); fill-rule: nonzero; opacity: 1;" transform=" matrix(1 0 0 1 0 0) " stroke-linecap="round"/>
</g>
</svg>