<svg xmlns="http://www.w3.org/2000/svg" xmlns:xlink="http://www.w3.org/1999/xlink" version="1.1" width="256" height="256" viewBox="0 0 256 256" xml:space="preserve">
<g style="stroke: none; stroke-width: 0; stroke-dasharray: none; stroke-linecap: butt; stroke-linejoin: miter; stroke-miterlimit: 10; fill: none; fill-rule: nonzero; opacity: 1;" transform="translate(1.4065934065934016 1.4065934065934016) scale(2.81 2.81)">
	<path d="M 43.127 60.317 c -0.195 0 -0.391 -0.028 -0.581 -0.086 l -10.151 -3.079 c -1.057 -0.32 -1.654 -1.437 -1.333 -2.494 l 8.155 -26.888 c 0.154 -0.507 0.503 -0.933 0.971 -1.183 c 0.468 -0.25 1.015 -0.304 1.523 -0.15 l 10.151 3.079 c 1.058 0.321 1.654 1.437 1.334 2.495 l -8.155 26.887 c -0.154 0.508 -0.503 0.934 -0.971 1.184 C 43.777 60.237 43.453 60.317 43.127 60.317 z M 35.471 53.905 l 6.323 1.918 l 6.995 -23.06 l -6.324 -1.918 L 35.471 53.905 z" style="stroke: none; stroke-width: 1; stroke-dasharray: none; stroke-linecap: butt; stroke-linejoin: miter; stroke-miterlimit: 10; fill: rgb(0,0,0); fill-rule: nonzero; opacity: 1;" transform=" matrix(1 0 0 1 0 0) " stroke-linecap="round"/>
	<path d="M 56.173 27.781 c -0.839 0 -1.682 -0.124 -2.506 -0.374 c -2.197 -0.667 -4.003 -2.148 -5.086 -4.173 c -1.082 -2.025 -1.311 -4.35 -0.645 -6.547 c 0.667 -2.197 2.149 -4.003 4.174 -5.085 c 2.025 -1.082 4.35 -1.311 6.547 -0.645 c 2.196 0.666 4.002 2.148 5.085 4.173 c 1.082 2.024 1.311 4.35 0.645 6.546 c -0.666 2.197 -2.148 4.003 -4.173 5.085 C 58.949 27.438 57.568 27.781 56.173 27.781 z M 56.155 14.585 c -0.745 0 -1.483 0.183 -2.159 0.544 c -1.083 0.579 -1.875 1.544 -2.231 2.719 c -0.356 1.175 -0.234 2.417 0.345 3.5 c 0.578 1.083 1.544 1.875 2.718 2.231 c 1.175 0.356 2.419 0.234 3.501 -0.345 s 1.875 -1.544 2.23 -2.718 c 0 0 0 0 0 0 c 0.356 -1.174 0.234 -2.417 -0.345 -3.499 c -0.578 -1.083 -1.544 -1.875 -2.718 -2.231 C 57.055 14.651 56.604 14.585 56.155 14.585 z" style="stroke: none; stroke-width: 1; stroke-dasharray: none; stroke-linecap: butt; stroke-linejoin: miter; stroke-miterlimit: 10; fill: rgb(0,0,0); fill-rule: nonzero; opacity: 1;" transform=" matrix(1 0 0 1 0 0) " stroke-linecap="round"/>
	<path d="M 27.242 90 c -0.115 0 -0.23 -0.01 -0.347 -0.03 c -1.088 -0.19 -1.816 -1.227 -1.625 -2.314 l 5.736 -32.762 c 0.19 -1.089 1.228 -1.819 2.315 -1.625 c 1.088 0.19 1.816 1.227 1.625 2.314 L 29.21 88.345 C 29.039 89.316 28.195 90 27.242 90 z" style="stroke: none; stroke-width: 1; stroke-dasharray: none; stroke-linecap: butt; stroke-linejoin: miter; stroke-miterlimit: 10; fill: rgb(0,0,0); fill-rule: nonzero; opacity: 1;" transform=" matrix(1 0 0 1 0 0) " stroke-linecap="round"/>
	<path d="M 47.862 90 c -0.965 0 -1.815 -0.701 -1.972 -1.685 l -4.737 -29.683 c -0.174 -1.091 0.569 -2.116 1.66 -2.29 c 1.099 -0.177 2.117 0.569 2.291 1.659 l 4.737 29.683 c 0.175 1.091 -0.568 2.116 -1.659 2.29 C 48.072 89.992 47.967 90 47.862 90 z" style="stroke: none; stroke-width: 1; stroke-dasharray: none; stroke-linecap: butt; stroke-linejoin: miter; stroke-miterlimit: 10; fill: rgb(0,0,0); fill-rule: nonzero; opacity: 1;" transform=" matrix(1 0 0 1 0 0) " stroke-linecap="round"/>
	<path d="M 41.13 30.35 c -1.063 0 -1.948 -0.837 -1.997 -1.91 C 38.548 15.406 43.509 5.92 53.879 0.246 c 0.971 -0.531 2.184 -0.174 2.715 0.794 c 0.53 0.969 0.174 2.184 -0.795 2.714 C 46.755 8.704 42.611 16.72 43.129 28.26 c 0.049 1.104 -0.805 2.038 -1.908 2.088 C 41.19 30.35 41.16 30.35 41.13 30.35 z" style="stroke: none; stroke-width: 1; stroke-dasharray: none; stroke-linecap: butt; stroke-linejoin: miter; stroke-miterlimit: 10; fill: rgb(0,0,0); fill-rule: nonzero; opacity: 1;" transform=" matrix(1 0 0 1 0 0) " stroke-linecap="round"/>
	<path d="M 51.283 54.222 c -0.76 0 -1.487 -0.437 -1.822 -1.174 c -0.456 -1.006 -0.012 -2.191 0.994 -2.648 c 4.032 -1.831 5.256 -6.232 5.078 -9.444 c -0.206 -3.732 -2.119 -6.726 -4.872 -7.626 c -1.05 -0.343 -1.623 -1.473 -1.28 -2.522 c 0.345 -1.049 1.477 -1.621 2.522 -1.279 c 4.334 1.416 7.326 5.815 7.624 11.207 c 0.325 5.888 -2.586 11.112 -7.418 13.307 C 51.841 54.163 51.56 54.222 51.283 54.222 z" style="stroke: none; stroke-width: 1; stroke-dasharray: none; stroke-linecap: butt; stroke-linejoin: miter; stroke-miterlimit: 10; fill: rgb(0,0,0); fill-rule: nonzero; opacity: 1;" transform=" matrix(1 0 0 1 0 0) " stroke-linecap="round"/>
</g>
</svg>