<svg xmlns="http://www.w3.org/2000/svg" xmlns:xlink="http://www.w3.org/1999/xlink" version="1.1" width="256" height="256" viewBox="0 0 256 256" xml:space="preserve">
<g style="stroke: none; stroke-width: 0; stroke-dasharray: none; stroke-linecap: butt; stroke-linejoin: miter; stroke-miterlimit: 10; fill: none; fill-rule: nonzero; opacity: 1;" transform="translate(1.4065934065934016 1.4065934065934016) scale(2.81 2.81)">
	<path d="M 33.364 76.448 h -7.451 c -5.211 0 -9.451 -4.24 -9.451 -9.451 V 42.43 c 0 -5.211 4.24 -9.451 9.451 -9.451 h 7.451 c 1.104 0 2 0.896 2 2 v 39.469 C 35.364 75.553 34.469 76.448 33.364 76.448 z M 25.914 36.979 c -3.005 0 -5.451 2.445 -5.451 5.451 v 24.567 c 0 3.006 2.445 5.451 5.451 5.451 h 5.451 V 36.979 H 25.914 z" style="stroke: none; stroke-width: 1; stroke-dasharray: none; stroke-linecap: butt; stroke-linejoin: miter; stroke-miterlimit: 10; fill: rgb(0,0,0); fill-rule: nonzero; opacity: 1;" transform=" matrix(1 0 0 1 0 0) " stroke-linecap="round"/>
	<path d="M 27.727 27.721 c -6.211 0 -11.264 -5.053 -11.264 -11.264 S 21.516 5.193 27.727 5.193 s 11.264 5.053 11.264 11.264 S 33.938 27.721 27.727 27.721 z M 27.727 9.193 c -4.005 0 -7.264 3.259 -7.264 7.264 s 3.259 7.264 7.264 7.264 s 7.264 -3.259 7.264 -7.264 S 31.732 9.193 27.727 9.193 z" style="stroke: none; stroke-width: 1; stroke-dasharray: none; stroke-linecap: butt; stroke-linejoin: miter; stroke-miterlimit: 10; fill: rgb(0,0,0); fill-rule: nonzero; opacity: 1;" transform=" matrix(1 0 0 1 0 0) " stroke-linecap="round"/>
	<path d="M 55.861 36.979 H 33.364 c -1.104 0 -2 -0.896 -2 -2 s 0.896 -2 2 -2 h 22.497 c 1.104 0 2 0.896 2 2 S 56.966 36.979 55.861 36.979 z" style="stroke: none; stroke-width: 1; stroke-dasharray: none; stroke-linecap: butt; stroke-linejoin: miter; stroke-miterlimit: 10; fill: rgb(0,0,0); fill-rule: nonzero; opacity: 1;" transform=" matrix(1 0 0 1 0 0) " stroke-linecap="round"/>
	<path d="M 33.363 76.449 c -0.879 0 -1.684 -0.584 -1.928 -1.472 c -0.292 -1.065 0.334 -2.166 1.399 -2.458 l 43.532 -11.941 c 1.069 -0.295 2.166 0.335 2.458 1.399 c 0.292 1.065 -0.334 2.166 -1.399 2.458 L 33.894 76.377 C 33.716 76.426 33.538 76.449 33.363 76.449 z" style="stroke: none; stroke-width: 1; stroke-dasharray: none; stroke-linecap: butt; stroke-linejoin: miter; stroke-miterlimit: 10; fill: rgb(0,0,0); fill-rule: nonzero; opacity: 1;" transform=" matrix(1 0 0 1 0 0) " stroke-linecap="round"/>
	<path d="M 88 84.807 H 2 c -1.104 0 -2 -0.896 -2 -2 s 0.896 -2 2 -2 h 86 c 1.104 0 2 0.896 2 2 S 89.104 84.807 88 84.807 z" style="stroke: none; stroke-width: 1; stroke-dasharray: none; stroke-linecap: butt; stroke-linejoin: miter; stroke-miterlimit: 10; fill: rgb(0,0,0); fill-rule: nonzero; opacity: 1;" transform=" matrix(1 0 0 1 0 0) " stroke-linecap="round"/>
</g>
</svg>